<svg xmlns="http://www.w3.org/2000/svg" xmlns:xlink="http://www.w3.org/1999/xlink" width="633.922" height="618.369"><path d="M157.63 603.74c-29.816-5.508-1.152-46.886-11.923-63.116-20.383 14.33-61.646 70.29-72.163 43.57-8.552-21.728 24.948-45.511 45.544-63.217-17.345-9.628-75.094 16.881-71.602-9.62 4.508-34.211 71.522-19.864 106.895-15.64 27.992 6.184 49.94-38.124 42.802-60.043-13.72-3.118-27.77 36.006-36.702 7.115.23-22.214 36.41-45.293 20.873-64.661-3.612 16.797-29.537 27.918-24.308 1.968 2.957-10.527 5.698-51.9-6.645-25.58-5.622 11.986-23.931 44.451-32.8 12.5-5.545-19.972 15.39-67.518 1.976-66.772-9.867.548-21.716 68.603-48.975 36.566-16.685-21.918-5.134-50.466 6.431-68.663-27.906 21.763-47.873-24.903-17.02-34.788 14.24-4.562 37.268-21.507 8.639-17.336-42.57 6.2-32.493-47.97 4.667-47.95 18.755.01 47.522 9.977 58.22 3.147-2.403-21.574 15.172-28.533 34.654-34.459-8.671-13.617 28.846-30.458 34.622-40.185-29.501-.64-39.431-23.104-14.256-29.15 19.189-4.608 48.682 4.96 23.005-14.595-19.352-14.737 38.76-21.18 51.54-23.498 7.695-25.09 53.008-16.454 74.615-8.603C347.563.264 389.732 4.79 398.736 32.183c6.12 18.619 13.872 15.07 23.346 1.81 31.1-10.36 23.86 38.43 35.896 43.488 26.884-13.46 38.29 19.72 22.032 35.805 27.697 4.528 13.45 33.626-2.217 39.057 10.358 13.813 41.247 21.294 20.514 41.055 28.3 7.944-22.198 36.401 13.7 25.921 31.354-13.45 71.31-32.722 103.242-10.79 32.456 27.565-23.313 49.871-47.919 49.08-12.979 16.764 16.728-.45 24.202 12.415 8.402 14.46-4.712 21.457-21.627 21.503-19.25.052-25.215 4.48-1.204 11.962 24.125 7.517 33.247 27.497 6.992 25.319-19.091-1.583-38.575-5.405-38.567 11.498 18.854 7.8 63.808 27.933 26.356 36.995-19.114 4.625-33.66-5.81-48.967-5.28 27.88 13.62 6.989 34.685-14.568 22.54-11.596-8.425-28.453-7.221-9.023 4.406 24.553 14.857-3.696 25.234-19.458 12.653-10.925-1.372-13.104 12.121-27.818 10.164 22.284 26.96-23.987 24.684-31.434 19.69-.508 19.564-29.488 12.061-37.517 25.453-11.075-.352-30.739-16.924-15.335 3.911 22.295 23.026 36.679 24.65 82.775 40.75 67.465 23.565-3.32 40.61-27.729 27.58 22.298 18.934 59.512 59.399 26.353 60.816-22.023.941-54.388-72.981-55.808-20.696-.732 28.948-38.613 22.423-30.44-3.864 8.355-26.874 19.369-55.37-3.773-81.565-26.196-29.651-24.076-61.797-45.858-24.18-20.442 35.303-45.635-43.01-50.032-4.136 3.785 25.99-4.52 35.809-18.05 16.127 2.92 20.451-13.698 19.826-20.202 3.432-13.71 24.24-44.422 38.917-44.515 73.963-.045 16.948 3.747 48.037-14.452 44.675zm-23.119-466.518c-7.85-29.041-70.35-17.231-55.506-49.457 21.277-46.19 73.289 43.028 55.506 49.457zM95.653 17.002c23.131-10.347 41.14 34.066 41.785 59.917C103.07 48.62 72.52 27.349 95.653 17.002Z" style="fill:#000;stroke:#000;stroke-width:.268814;stroke-opacity:1"/><path d="M106.031 392.73c-58.42 49.504 4.474 65.172 0 0zM93.168 360.145c-24.863-2.534-89.886 6.105-81.028 40.16 10.26 17.674 16.595 12.904 31.2 3.755 25.089-15.719 25.203-28.716 49.828-43.915zM2.17 109.657c8.338-20.615 52.763-5.233 68.595 25.114-15.704-10.39-76.932-4.5-68.595-25.114zM68.996 429.784c-37.629 1.773-59.387 28.936-41.186 38.59 9.929 5.268 28.221-24.7 41.186-38.59zM504.766 119.698c14.942-13.807 15.782-12.253 23.343-16.467 13.86-7.725 39.98-22.528 23.508-38.266-25.468-24.332-45.271 34.613-46.85 54.733zM556.627 171.068c17.65-.541 76.455-18.353 76.912-27.698.75-15.35-27.218-10.265-42.522-4.498-26.291 9.908-30.768 23.46-34.39 32.196z" style="fill:#000;stroke:#000;stroke-width:.268814;stroke-opacity:1"/><path d="M555.7 78c13.082-11.239 32.894-12.026 36.207-31.816.582-11.029-7.645-8.932-18.442-3.93C559.16 48.882 548.658 75.248 555.7 78zM565.44 111.36c17.762-9.195 46.977-2.349 37.564-18.606-7.4-12.783-27.417 2.245-37.565 18.607zM540.416 478.483c-28.205 8.964-26.904-42.013-37.794-54.946 32.108.97 66 45.982 37.794 54.946zM558.826 386.184c69.896-16.995 94.591 42.983 62.068 42.093-14.456-.382-35.902-37.24-62.068-42.093zM562.815 434.347c59.559 17.947 25.635 68.78 0 0zM544.766 534.04c64.342 40.837 3.696 87.708 0 0zM602.308 457.39c51.507 9.325 22.242 40.907 0 0zM218.213 501.082c-56.222 48.05 14.721 80.223 0 0z" style="fill:#000;stroke:#000;stroke-width:.268814;stroke-opacity:1"/><path d="M203.054 553.54c-65.125 49.275 16.155 111.982 0 0z" style="fill:#000;stroke:#000;stroke-width:.268814;stroke-opacity:1"/><path d="M265.168 92.908c-24.85.182-45.799 21.846-40.36 48.406 1.788 8.725 11.138 34.313 32.316 33.6-14.297-5.437-17.886-16.735-14.785-25.385 14.124-39.399 57.875 1.382 38.663 19.405 36.663-29.365 32.825-68.24-8.02-75.375-2.63-.459-5.243-.67-7.814-.651m127.211 20.856c-11.964-.068-24.299 4.674-32.672 13.144-30.358 30.707-17.145 49.437 8.271 67.414-12.587-13.515-5.452-44.938 19.71-38.95 30.148 7.174 19.238 34.024 7.39 39.93 28.88-6.309 43.157-37.638 29.02-63.666-6.667-12.277-18.983-17.8-31.719-17.872m-99.83 69.638c-30.23.086-59.73 13.487-73.24 42.148-15.263 32.38-11.166 70.146-6.126 104.606l17.96 122.797c23.247-34.224 50.37-57.502 79.59-83.561 31.671-26.011 63.428-55.847 72.583-97.682 7.675-32.69-15.386-63.116-44.853-77.764-14.043-6.98-30.078-10.589-45.913-10.544m-10.677 19.59c4.184-.026 7.034 3.96 4.27 15.016 2.946 7.742-4.218 11.109-10.049 9.326-16.96-7.419-2.79-24.29 5.779-24.342m-4.781 8.858c-2.255-.077-6.043 8.943.967 7.573.766-5.625.058-7.539-.967-7.573m64.063 8.845c4.606-.112 6.487 3.675-1.055 14.19-3.485 3.418-8.614 7.51-13.655 5.79-8.209-8.77 7.034-19.792 14.71-19.98m-38.556 4.717c13.03-.125-6.173 43.513-11.593 56.716-8.595 20.94-10.57 22.2-26.025 64.074 10.403-41.158 24.978-79.08 37.304-120.78.107-.01.211-.01.314-.01" style="color:#000;display:inline;overflow:visible;visibility:visible;fill:#dff;fill-opacity:1;fill-rule:nonzero;stroke:none;stroke-width:26.8814;stroke-linecap:square;stroke-linejoin:miter;stroke-miterlimit:4;stroke-dasharray:none;stroke-dashoffset:0;stroke-opacity:1;marker:none;paint-order:markers fill stroke"/><path d="M292.55 183.402c-30.231.086-59.731 13.487-73.241 42.148-15.263 32.38-11.166 70.146-6.126 104.606l17.96 122.797c23.247-34.224 50.37-57.502 79.59-83.561 31.671-26.011 63.428-55.847 72.583-97.682 7.675-32.69-15.386-63.116-44.853-77.764-14.043-6.98-30.078-10.589-45.913-10.544m-10.678 19.59c4.184-.026 7.034 3.96 4.27 15.016 2.946 7.742-4.218 11.109-10.049 9.326-16.96-7.419-2.79-24.29 5.779-24.342m-4.781 8.858c-2.255-.077-6.043 8.943.967 7.573.766-5.625.058-7.539-.967-7.573m64.063 8.845c4.606-.112 6.487 3.675-1.055 14.19-3.485 3.418-8.614 7.51-13.655 5.79-8.209-8.77 7.034-19.792 14.71-19.98m-38.556 4.717c13.03-.125-6.173 43.513-11.593 56.716-8.595 20.94-10.57 22.2-26.025 64.074 10.403-41.158 24.978-79.08 37.304-120.78.107-.01.211-.01.314-.01" style="color:#000;display:inline;overflow:visible;visibility:visible;fill:#eded4b;fill-opacity:1;fill-rule:nonzero;stroke:none;stroke-width:26.8814;stroke-linecap:square;stroke-linejoin:miter;stroke-miterlimit:4;stroke-dasharray:none;stroke-dashoffset:0;stroke-opacity:1;marker:none;paint-order:markers fill stroke"/><path d="M50.707 168.397h260.172v335.912H50.707z" style="color:#000;display:inline;overflow:visible;visibility:visible;opacity:1;fill:#fff;fill-opacity:1;fill-rule:nonzero;stroke:#00000a;stroke-width:18.52180672;stroke-linecap:round;stroke-linejoin:round;stroke-miterlimit:10;stroke-dasharray:none;stroke-dashoffset:0;stroke-opacity:1;marker:none" transform="skewY(20.319)scale(.93777 1)"/><path id="a" d="m63.982 228.334 209.214 77.05" style="fill:none;fill-rule:evenodd;stroke:#000;stroke-width:8.96814346;stroke-linecap:butt;stroke-linejoin:miter;stroke-miterlimit:4;stroke-dasharray:none;stroke-opacity:1"/><use xlink:href="#a" width="100%" height="100%"/><use xlink:href="#a" width="100%" height="100%" transform="translate(0 37.858)"/><use xlink:href="#a" width="100%" height="100%" transform="translate(0 75.717)"/><use xlink:href="#a" width="100%" height="100%" transform="translate(0 113.575)"/><use xlink:href="#a" width="100%" height="100%" transform="translate(0 151.434)"/><use xlink:href="#a" width="100%" height="100%" transform="translate(0 189.292)"/><use xlink:href="#a" width="100%" height="100%" transform="translate(0 227.15)"/><use xlink:href="#a" width="100%" height="100%" transform="translate(0 265.009)"/><path d="M310.715 384.243h260.172v335.912H310.715z" style="color:#000;display:inline;overflow:visible;visibility:visible;opacity:1;fill:#fff;fill-opacity:1;fill-rule:nonzero;stroke:#00000a;stroke-width:18.52180672;stroke-linecap:round;stroke-linejoin:round;stroke-miterlimit:10;stroke-dasharray:none;stroke-dashoffset:0;stroke-opacity:1;marker:none" transform="skewY(-20.319)scale(.93777 1)"/><path d="m307.81 305.44 209.214-77.889M307.81 343.298l209.214-77.888M307.81 381.156l209.214-77.888M307.81 419.015l209.214-77.888M307.81 456.873l209.214-77.888M307.81 494.732l209.214-77.889M307.81 532.59l209.214-77.888M307.81 570.448l209.214-77.888" style="fill:none;fill-rule:evenodd;stroke:#000;stroke-width:8.96814346;stroke-linecap:butt;stroke-linejoin:miter;stroke-miterlimit:4;stroke-dasharray:none;stroke-opacity:1"/><ellipse cx="53.569" cy="396.545" rx="37.658" ry="23.185" style="color:#000;display:inline;overflow:visible;visibility:visible;opacity:1;fill:#000;fill-opacity:1;fill-rule:nonzero;stroke:#00000a;stroke-width:10.7934;stroke-linecap:round;stroke-linejoin:round;stroke-miterlimit:4;stroke-dasharray:none;stroke-dashoffset:0;stroke-opacity:.980545;marker:none;paint-order:markers fill stroke"/><ellipse cx="-225.536" cy="390.209" rx="26.865" ry="9.264" style="color:#000;display:inline;overflow:visible;visibility:visible;opacity:1;fill:#000;fill-opacity:1;fill-rule:nonzero;stroke:#00000a;stroke-width:10;stroke-linecap:round;stroke-linejoin:round;stroke-miterlimit:4;stroke-dasharray:none;stroke-dashoffset:0;stroke-opacity:.98054474;marker:none;paint-order:markers fill stroke" transform="rotate(-36.4)"/><ellipse cx="-589.414" cy="-244.166" rx="51.289" ry="14.782" style="color:#000;display:inline;overflow:visible;visibility:visible;opacity:1;fill:#000;fill-opacity:1;fill-rule:nonzero;stroke:#00000a;stroke-width:7.66156292;stroke-linecap:round;stroke-linejoin:round;stroke-miterlimit:4;stroke-dasharray:none;stroke-dashoffset:0;stroke-opacity:.98054474;marker:none;paint-order:markers fill stroke" transform="matrix(-.97939 -.20198 .21774 -.976 0 0)"/><ellipse cx="-636.238" cy="-187.905" rx="49.509" ry="11.46" style="color:#000;display:inline;overflow:visible;visibility:visible;opacity:1;fill:#000;fill-opacity:1;fill-rule:nonzero;stroke:#00000a;stroke-width:6.62789822;stroke-linecap:round;stroke-linejoin:round;stroke-miterlimit:4;stroke-dasharray:none;stroke-dashoffset:0;stroke-opacity:.98054474;marker:none;paint-order:markers fill stroke" transform="matrix(-.97494 -.22246 .41992 -.90756 0 0)"/><ellipse cx="-619.039" cy="-112.561" rx="44.973" ry="8.543" style="color:#000;display:inline;overflow:visible;visibility:visible;opacity:1;fill:#000;fill-opacity:1;fill-rule:nonzero;stroke:#00000a;stroke-width:5.453969;stroke-linecap:round;stroke-linejoin:round;stroke-miterlimit:4;stroke-dasharray:none;stroke-dashoffset:0;stroke-opacity:.98054474;marker:none;paint-order:markers fill stroke" transform="matrix(-.9576 -.28807 .5198 -.85429 0 0)"/></svg>
