<?xml version="1.0" standalone="no"?>
<!DOCTYPE svg PUBLIC "-//W3C//DTD SVG 20010904//EN"
 "http://www.w3.org/TR/2001/REC-SVG-20010904/DTD/svg10.dtd">
<svg version="1.0" xmlns="http://www.w3.org/2000/svg"
 width="16.000000pt" height="16.000000pt" viewBox="0 0 16.000000 16.000000"
 preserveAspectRatio="xMidYMid meet">
<metadata>
Created by potrace 1.11, written by Peter Selinger 2001-2013
</metadata>
<g transform="translate(0.000000,16.000000) scale(0.002446,-0.002446)"
fill="#000000" stroke="none">
<path d="M3627 6319 c-55 -13 -97 -36 -142 -79 l-40 -39 -85 25 c-204 59 -416
69 -532 25 -57 -22 -119 -78 -132 -119 -5 -15 -19 -22 -49 -27 -385 -62 -541
-117 -524 -186 4 -13 32 -44 62 -69 31 -24 61 -53 67 -63 20 -39 6 -44 -150
-51 -175 -8 -242 -24 -289 -71 -86 -86 12 -212 181 -233 33 -4 61 -12 63 -19
2 -6 -30 -38 -73 -70 -245 -186 -279 -222 -279 -296 0 -39 0 -39 -65 -61 -84
-30 -159 -68 -200 -103 -44 -36 -80 -116 -80 -175 0 -39 -4 -50 -22 -60 -36
-19 -166 -13 -353 17 -205 32 -282 31 -370 -9 -58 -26 -62 -26 -98 -11 -45 19
-68 19 -93 1 -19 -14 -19 -39 -24 -986 l-5 -972 -70 -22 c-166 -53 -235 -123
-235 -239 0 -63 23 -104 110 -193 51 -53 151 -114 185 -114 12 0 15 -13 15
-66 l0 -65 -54 -50 c-62 -56 -116 -153 -116 -206 0 -74 61 -133 115 -113 57
22 55 32 55 -250 0 -276 4 -304 48 -344 12 -10 117 -54 234 -97 117 -43 223
-83 236 -89 22 -10 21 -12 -43 -86 -101 -119 -136 -211 -114 -298 14 -58 51
-96 93 -96 73 0 205 92 361 249 44 45 87 81 96 81 19 0 179 -58 192 -69 4 -4
0 -52 -8 -107 -23 -157 -2 -228 78 -265 125 -56 185 2 203 199 4 39 8 72 10
72 2 0 22 -7 44 -16 31 -13 39 -20 34 -33 -4 -9 -13 -38 -20 -66 -40 -143 20
-295 115 -295 73 0 119 68 144 213 l12 75 396 -147 c217 -81 408 -157 424
-169 37 -30 116 -31 143 -2 10 11 148 68 315 130 295 109 298 110 329 94 40
-21 120 -14 156 13 15 11 37 38 49 60 21 37 30 42 154 87 l131 48 96 -99 c133
-136 199 -165 289 -128 45 19 62 41 63 80 0 37 -56 153 -104 216 l-36 46 463
172 c254 94 467 171 472 171 6 0 18 -39 28 -86 27 -129 53 -190 107 -246 43
-44 51 -49 85 -46 55 4 80 42 79 116 -1 78 -41 156 -125 246 l-65 71 23 34
c22 33 23 40 23 257 0 206 2 226 20 256 26 42 26 103 0 170 -19 50 -20 77 -20
441 l0 387 83 0 c45 0 109 7 142 15 110 29 152 73 133 141 -17 64 -139 175
-295 268 -58 35 -63 40 -63 73 0 35 0 35 38 30 20 -3 98 -12 173 -18 155 -15
229 -5 272 35 53 49 43 169 -20 232 -19 19 -39 34 -46 34 -25 0 -139 60 -135
72 2 6 26 17 54 25 56 16 104 61 104 98 0 31 -39 95 -76 124 -16 13 -41 21
-63 21 -48 0 -76 20 -67 47 5 17 18 21 79 26 218 19 455 149 487 266 21 80
-23 164 -123 231 -155 105 -377 114 -656 25 -21 -6 -21 -4 -21 153 0 141 -2
161 -18 175 -10 10 -27 17 -37 17 -10 0 -97 -29 -193 -65 -96 -36 -176 -65
-179 -65 -2 0 -2 8 1 18 13 39 -36 104 -127 173 -103 77 -157 129 -140 136 34
13 98 69 124 111 78 123 54 228 -60 269 l-48 17 31 49 c28 46 31 57 31 137 0
78 -3 91 -28 129 -49 73 -130 97 -224 65 -47 -16 -47 -16 -69 9 -12 14 -31 63
-43 108 -42 160 -65 223 -96 263 -37 49 -89 70 -152 60 -34 -5 -49 -14 -78
-50 -37 -45 -80 -74 -110 -74 -29 0 -71 53 -99 127 -18 46 -44 91 -72 123 -91
100 -260 151 -397 119z m-774 -875 c333 -86 394 -397 131 -671 -68 -72 -73
-75 -59 -41 19 47 19 73 -1 131 -32 93 -149 187 -233 187 -51 -1 -114 -32
-144 -72 -93 -122 -74 -258 46 -329 l52 -31 -43 6 c-61 9 -111 37 -158 88 -87
94 -135 215 -135 338 0 162 80 290 228 365 94 47 208 57 316 29z m1259 -205
c193 -41 307 -202 296 -420 -4 -75 -9 -97 -40 -161 -46 -91 -122 -169 -204
-209 -82 -39 -93 -37 -52 9 104 115 85 264 -43 329 -138 71 -261 44 -322 -71
-32 -60 -31 -183 2 -245 l23 -44 -34 24 c-70 49 -168 157 -194 214 -38 81 -32
175 15 268 46 91 162 214 240 256 100 53 213 71 313 50z m-817 -743 c173 -52
300 -123 419 -236 67 -64 176 -205 165 -213 -11 -9 -780 -289 -784 -285 -2 2
7 40 21 83 47 153 51 250 9 250 -15 0 -28 -33 -75 -180 -41 -129 -61 -179 -71
-177 -15 3 -752 273 -757 277 -2 2 11 33 27 70 81 179 224 312 410 384 132 51
198 61 381 57 144 -3 177 -7 255 -30z m-1545 -496 c630 -233 1151 -428 1158
-433 9 -7 12 -348 12 -1644 0 -984 -4 -1633 -9 -1631 -5 1 -532 196 -1170 433
l-1161 430 0 283 c0 282 0 284 23 303 12 11 30 24 40 30 15 9 17 7 12 -13 -6
-23 28 -36 1064 -417 588 -217 1073 -393 1078 -392 11 4 37 70 30 77 -3 3
-482 181 -1064 396 -582 214 -1059 391 -1061 393 -2 1 15 27 37 56 50 66 65
114 50 158 -20 57 -87 75 -168 46 -39 -14 -42 -13 -39 3 2 13 17 19 58 24 54
7 71 1 1100 -378 575 -212 1049 -386 1054 -387 14 -3 38 76 25 84 -6 3 -455
170 -997 369 -543 200 -989 365 -991 367 -3 2 14 19 37 38 51 44 82 95 96 155
l11 46 890 -328 c490 -181 902 -331 916 -334 22 -5 26 -1 37 32 6 21 8 41 4
45 -4 3 -428 160 -942 349 l-935 343 -48 48 c-60 60 -151 105 -245 121 l-72
12 0 874 c0 695 3 873 13 870 6 -3 527 -195 1157 -428z m3680 107 l0 -323 -87
18 c-112 23 -250 24 -281 2 -28 -19 -28 -51 0 -81 12 -13 20 -25 17 -27 -3 -3
-1833 -685 -1906 -711 -9 -3 -10 -12 -1 -37 6 -18 14 -37 19 -42 9 -10 -60
-35 1089 393 l915 341 107 -40 c59 -22 112 -40 118 -40 6 0 10 -25 10 -59 l0
-60 -137 1 c-145 2 -199 -10 -229 -50 -17 -22 -18 -54 -2 -70 7 -7 8 -15 2
-20 -5 -5 -418 -161 -919 -347 -500 -186 -926 -344 -946 -352 -36 -14 -37 -15
-26 -50 6 -19 16 -37 22 -40 7 -2 453 160 992 361 l980 365 85 -34 c47 -19
106 -39 132 -46 l46 -11 0 -85 c0 -76 -2 -84 -17 -79 -116 34 -408 33 -485 -1
-60 -27 -83 -61 -74 -112 5 -31 3 -40 -12 -46 -20 -8 -1614 -603 -1654 -617
l-26 -9 15 -45 c8 -24 18 -42 21 -40 4 2 396 149 872 326 l864 322 81 -40 c90
-44 211 -85 330 -111 l80 -18 3 -720 2 -720 -122 -45 c-68 -25 -592 -219
-1166 -432 -573 -212 -1044 -386 -1047 -386 -3 0 -5 736 -5 1635 l0 1635 23
11 c29 13 2299 857 2310 858 4 1 7 -144 7 -322z"/>
<path d="M2825 4299 c-85 -75 -87 -162 -5 -204 39 -20 72 -19 102 5 23 18 25
26 27 106 0 47 -4 94 -9 105 -17 31 -72 25 -115 -12z"/>
<path d="M3420 4118 c-115 -70 -118 -192 -4 -164 62 16 152 148 123 182 -19
23 -61 16 -119 -18z"/>
<path d="M657 4119 c-12 -30 -13 -41 -4 -44 7 -3 489 -180 1072 -395 583 -214
1065 -390 1071 -390 11 0 41 77 33 84 -9 7 -2131 786 -2143 786 -7 0 -20 -18
-29 -41z"/>
<path d="M661 3734 c-7 -20 -9 -40 -5 -44 10 -9 2128 -790 2142 -790 12 0 33
73 24 81 -8 8 -2125 789 -2139 789 -5 0 -15 -16 -22 -36z"/>
<path d="M661 3344 c-7 -20 -9 -40 -5 -44 10 -9 2126 -790 2141 -790 12 0 35
72 25 81 -8 7 -2129 789 -2140 789 -5 0 -14 -16 -21 -36z"/>
<path d="M661 2950 c-7 -23 -11 -43 -9 -44 10 -7 2136 -786 2145 -786 12 0 35
72 25 81 -7 6 -2095 777 -2130 786 -14 3 -21 -4 -31 -37z"/>
<path d="M661 1389 c-7 -23 -11 -42 -9 -44 4 -4 2118 -782 2136 -787 13 -3 49
68 40 77 -4 5 -2145 795 -2152 795 -1 0 -8 -18 -15 -41z"/>
<path d="M4230 3770 c-883 -330 -1064 -401 -1062 -415 9 -44 23 -67 40 -63 35
10 2127 791 2134 797 9 9 -22 81 -36 80 -6 -1 -490 -180 -1076 -399z"/>
<path d="M4550 2326 c-415 -155 -897 -335 -1072 -400 l-316 -118 15 -44 c8
-24 18 -42 21 -40 4 2 489 182 1077 401 589 219 1071 399 1072 400 5 3 -30 85
-36 84 -3 0 -346 -128 -761 -283z"/>
<path d="M4234 1818 l-1072 -401 15 -43 c13 -38 17 -42 36 -35 12 5 497 185
1077 401 580 216 1056 393 1057 395 5 3 -30 85 -36 84 -3 -1 -488 -181 -1077
-401z"/>
<path d="M4245 1430 c-588 -220 -1074 -401 -1078 -402 -5 -2 0 -22 10 -45 l18
-42 1076 401 1077 401 -15 44 c-8 24 -16 43 -16 43 -1 -1 -483 -180 -1072
-400z"/>
<path d="M4240 1038 c-591 -220 -1076 -401 -1077 -402 -6 -5 31 -86 37 -84 4
2 489 182 1078 402 l1070 399 -15 43 c-8 24 -16 44 -16 43 -1 0 -486 -180
-1077 -401z"/>
<path d="M978 6230 c-104 -55 -88 -132 56 -276 81 -80 377 -327 384 -319 8 8
-21 164 -45 240 -53 169 -152 319 -238 359 -44 21 -112 19 -157 -4z"/>
<path d="M5929 5996 c-71 -29 -110 -56 -147 -104 -34 -43 -76 -118 -85 -153
l-6 -23 -28 25 c-49 46 -77 59 -120 59 -58 0 -86 -13 -137 -63 -92 -92 -183
-306 -220 -515 l-6 -34 60 52 c32 28 105 76 162 107 179 97 272 173 304 250
15 35 50 61 154 113 141 71 210 150 210 241 0 71 -44 85 -141 45z"/>
<path d="M923 5630 c-70 -36 -133 -158 -119 -232 12 -67 69 -102 271 -168 72
-23 147 -51 168 -62 52 -26 122 -92 137 -128 10 -23 16 -28 25 -20 73 61 -70
383 -238 537 -90 83 -174 108 -244 73z"/>
<path d="M6041 5495 c-57 -25 -130 -85 -181 -148 -27 -34 -48 -62 -46 -64 1
-2 23 4 47 12 24 9 100 25 169 36 68 11 135 26 147 35 27 17 30 52 8 94 -26
51 -78 63 -144 35z"/>
<path d="M104 5361 c-73 -44 -96 -117 -50 -160 41 -39 121 -60 342 -92 119
-17 243 -39 275 -49 l59 -18 -18 32 c-27 49 -172 187 -234 224 -132 78 -302
107 -374 63z"/>
<path d="M6233 5035 c-222 -40 -406 -153 -482 -294 -17 -32 -31 -64 -31 -70 0
-16 72 -4 245 39 314 80 535 181 535 245 0 36 -35 71 -84 84 -55 14 -91 13
-183 -4z"/>
<path d="M5853 2481 c-29 -5 -65 -12 -80 -16 -27 -6 -26 -7 22 -24 92 -33 168
-88 338 -248 147 -139 178 -158 255 -158 59 0 66 2 93 33 103 115 -65 331
-311 397 -67 18 -246 27 -317 16z"/>
<path d="M5780 1953 c0 -4 22 -53 50 -108 52 -104 122 -195 171 -220 62 -32
109 -10 109 52 0 82 -79 172 -205 233 -89 43 -125 55 -125 43z"/>
<path d="M6206 1688 c28 -55 126 -145 172 -159 76 -22 117 20 77 79 -30 42
-183 112 -246 112 -19 0 -19 -1 -3 -32z"/>
</g>
</svg>
